<?xml version="1.0" encoding="utf-8"?>
<!-- Generator: Adobe Illustrator 24.0.3, SVG Export Plug-In . SVG Version: 6.00 Build 0)  -->
<svg version="1.1" id="Layer_1" xmlns="http://www.w3.org/2000/svg" xmlns:xlink="http://www.w3.org/1999/xlink" x="0px" y="0px"
	 width="502.6px" height="226.3px" viewBox="0 0 502.6 226.3" style="enable-background:new 0 0 502.6 226.3;" xml:space="preserve"
	>
<style type="text/css">
	.st0{fill:#03151E;}
</style>
<path class="st0" d="M452.3,58.7h-11.9l-12.1-46.5l-0.9-3.3l-3.2,0.1c-0.4,0-35.6,1.3-61.4,0c-12-0.6-25-2.6-37.7-4.5
	c-14.7-2.2-30-4.6-43.1-4.6c-16.4,0-26.3,10.6-31.1,19.9C246.1,10.6,236.2,0,219.8,0c-13.2,0-28.4,2.3-43.1,4.6
	C164.1,6.5,151,8.5,139,9.1c-25.8,1.3-61.1,0-61.4,0l-3.2-0.1l-0.9,3.3l-12,46.5H47.8L0,215.7h225c0.5,4.3,3.9,10.6,8.1,10.6h36.3
	c4.2,0,7.6-6.3,8.1-10.6h225L452.3,58.7z M203.9,129.8c-0.6,0-1.2,0-1.8,0c-23.4,0-45.3,7-66.5,13.7l-0.1,0
	c-14.1,4.5-28.6,9.1-42.7,11.3c-0.2,0-0.7,0-1.8,0c-4,0-11.5-0.2-18.1-0.4c-8.4-0.2-15-0.4-20.1-0.5c4.6-17.2,13.8-52.3,33.8-127.9
	c6.4,0.2,15.3,0.3,24.9,0.3c10.8,0,20.3-0.2,28.3-0.6c12.7-0.6,26.2-2.7,39.2-4.7h0.1h0.1c14.7-2.2,28.7-4.4,40.7-4.4
	c5.6,0,10.1,2.1,13.7,6.4c2.5,3,3.9,6.2,4.5,7.8l0.4,106.8C228.1,132.7,216.6,130,203.9,129.8L203.9,129.8z M428.9,154.5
	c-6.6,0.2-14.2,0.4-18.1,0.4c-1,0-1.6,0-1.7,0c-14.1-2.2-28.6-6.8-42.7-11.3l-0.2,0c-21.2-6.7-43.1-13.7-66.5-13.7
	c-0.6,0-1.2,0-1.8,0c-12.7,0.2-24.2,2.9-34.5,7.9l0.4-106.8c0.6-1.7,2-4.9,4.5-7.8c3.6-4.3,8.1-6.4,13.7-6.4c12,0,26,2.1,40.7,4.4h0
	h0.1c13,2,26.4,4,39.2,4.7c7.9,0.4,17.4,0.6,28.2,0.6c9.6,0,18.4-0.2,24.9-0.3l4.2,15.9c16.8,63.5,25.3,95.7,29.6,112
	C443.9,154.1,437.3,154.2,428.9,154.5L428.9,154.5z"/>
</svg>
